<svg xmlns="http://www.w3.org/2000/svg" width="389.5" height="169.524" viewBox="0 0 389.5 169.524"><g transform="translate(-24.25 -25.25)"><path fill="#9bb4bf" d="m397 129v6h-35v-6a8 8 0 0 1 8-8h19a8 8 0 0 1 8 8z"/><path fill="#7eb5bd" d="m396 106a2 2 0 0 1 -2 3h-1v-9a11 11 0 0 0 -10-10h-6a10 10 0 0 0 -10 10h-3v-6a9 9 0 0 1 8-9h16a9 9 0 0 1 8 9z"/><path fill="#7eb5bd" d="m393 100v2a35 35 0 0 1 -25-5l-1-1a11 11 0 0 1 10-6h6a11 11 0 0 1 10 10z"/><path fill="#6e7f89" d="m389 110a1 1 0 1 1 -2 0 1 1 0 0 1 2 0z"/><path fill="#f9e3d4" d="m368 97a35 35 0 0 0 25 5v8a11 11 0 0 1 -10 11h-6a11 11 0 0 1 -10-11v-10a10 10 0 0 1 0-4zm19 15a1.4142136 1.4142136 0 1 0 2-2 1.4142136 1.4142136 0 0 0 -2 2zm-15 0a1.118034 1.118034 0 1 0 -1-2 1.118034 1.118034 0 0 0 1 2z"/><path fill="#fdae76" d="m382 74a2 2 0 1 1 -1 1 2 2 0 0 1 1-1z"/><path fill="#fdae76" d="m381 85h-3v-4a8 8 0 1 1 5 0v4zm0-10a2 2 0 1 0 -2 2 2 2 0 0 0 2-2z"/><path fill="#e6edf2" d="m367 110a11 11 0 0 0 10 11h-7a8 8 0 0 0 -8 8v6h35v-6a8 8 0 0 0 -8-8h-6a11 11 0 0 0 10-11v-1h1a2 2 0 0 0 2-3v-12a9 9 0 0 0 -8-9h-5v-4a8 8 0 1 0 -5 0v4h-6a9 9 0 0 0 -8 9v12a2 2 0 0 0 2 3h1zm46-60v102h-77v-45h16v-7h-16v-9h16v-7h-16v-9h16v-7h-16v-18zm-63 76 3-3-5-1-1-3-2 3-4 1 3 3-1 4 4-2 3 2z"/><path fill="#6e7f89" d="m371 110a1.118034 1.118034 0 1 1 1 2 1.118034 1.118034 0 0 1 -1-2z"/><path fill="#7eb5bd" d="m367 100v9h-1a2 2 0 0 1 -2-3v-6z"/><path fill="#9bb4bf" d="m354 168v3a22 22 0 0 1 -23 23h-222a22 22 0 0 1 -23-23v-3z"/><path fill="#fdae76" d="m353 123-3 3v4l-3-2-4 2 1-4-3-3 4-1 2-3 1 3z"/><path fill="#c4d4dd" d="m336 100h16v7h-16zm0-16h16v7h-16zm0-16h16v7h-16zm0 84v16h-232v-16h33v1h166v-1zm-1-29-4-1-2-3-2 3-4 1 3 3-1 4 4-2 4 2-1-4zm1-16v45h-33v-45zm-33-7h33v7h-33zm0-9h33v9h-33zm0-7h33v7h-33zm33-9v9h-33v-8a14 14 0 0 0 2-1zm0-7v7h-31a18 18 0 0 0 4-7zm0-18v18h-27a18 18 0 0 0 -1-14l3-4z"/><path fill="#c4d4dd" d="m336 36v14h-25l2-2a3.2015621 3.2015621 0 0 0 -5-4l-4 5a18 18 0 0 0 -25 1h-33v1h-54v-1h-3l3-3a3.2015621 3.2015621 0 1 0 -5-4l-6 7h-77v-14z"/><path fill="#9bb4bf" d="m336 36h-232a10 10 0 0 1 10-10h212a10 10 0 0 1 10 10z"/><path fill="#c4d4dd" d="m335 123-3 3 1 4-4-2-4 2 1-4-3-3 4-1 2-3 2 3z"/><path fill="#e6edf2" d="m312 44a3 3 0 0 1 1 4l-2 2h-5a18 18 0 0 0 -2-1l4-5a3 3 0 0 1 4 0zm-1 6-3 4a18 18 0 0 0 -2-4z"/><path fill="#7eb5bd" d="m310 62a18 18 0 0 1 -1 6h-6v-8l5-6a18 18 0 0 1 2 8zm-7 6h6a18 18 0 0 1 -4 7h-2z"/><path fill="#e6edf2" d="m304 49a18 18 0 0 1 2 1h-3z"/><path fill="#fff" d="m303 75h2a14 14 0 0 1 -2 1z"/><path fill="#7eb5bd" d="m304 49-1 1h-24a18 18 0 0 1 25-1z"/><path fill="#e6edf2" d="m303 107v45h-57v-45h2v-7h-2v-8h22v-7h-22v-9h22v-7h-22v-18h32a18 18 0 0 0 25 25v8h-21v7h21v9h-2v7z"/><path fill="#e6edf2" d="m301 100h2v7h-2zm-19-16h21v7h-21z"/><path fill="#7eb5bd" d="m303 68v7h-21v-7h11a3 3 0 0 0 1 1h1a3 3 0 0 0 1-1z"/><path fill="#7eb5bd" d="m303 60v8h-7a4 4 0 0 0 1 0z"/><path fill="#e6edf2" d="m303 51v9l-6 8a4 4 0 0 1 -1 0h-4l-5-5a3.2015621 3.2015621 0 0 1 4-5l3 3 8-10z"/><path fill="#e6edf2" d="m303 50h3a18 18 0 0 1 2 4l-5 6v-9h-1z"/><path fill="#7eb5bd" d="m303 50-1 1h-24l1-1z"/><path fill="#fff" d="m293 68h3a3 3 0 0 1 -1 1h-1a3 3 0 0 1 -1-1z"/><path fill="#7eb5bd" d="m282 75h21v1a18 18 0 0 1 -23 0z"/><path fill="#7eb5bd" d="m282 68v7l-2 1a18 18 0 0 1 -2-25h24l-8 10-3-3a3.2015621 3.2015621 0 0 0 -4 5l5 5h1z"/><path fill="#fff" d="m246 50h33l-1 1h-32z"/><path fill="#c4d4dd" d="m246 85h21v7h-21zm0-16h21v7h-21zm0 31h2v7h-2z"/><path fill="#e6edf2" d="m244 124-4-1-2-4-2 4-4 1 3 3v4l3-2 4 2-1-4zm59 29h-166v-1h55v-101h54v18h-48v7h48v9h-48v7h48v8h-48v7h48v45h57zm-79-26 3-3-4-1-2-4-2 4-4 1 3 3-1 4 4-2 4 2zm-18 0 3-3-4-1-2-4-1 4-5 1 3 3v4l3-2 4 2z"/><path fill="#c4d4dd" d="m198 100h49v7h-49zm0-15h49v7h-49zm0-16h49v7h-49z"/><path fill="#fdae76" d="m244 124-3 3 1 4-4-2-3 2v-4l-3-3 4-1 2-4 2 4zm-17 0-3 3 1 4-4-2-4 2 1-4-3-3 4-1 2-4 2 4zm-18 0-3 3 1 4-4-2-3 2v-4l-3-3 5-1 1-4 2 4z"/><path fill="#fff" d="m192 50v1h-3v-1z"/><path fill="#c4d4dd" d="m191 43a3 3 0 0 1 1 4l-3 3h-8l6-7a3 3 0 0 1 4 0z"/><path fill="#fff" d="m189 50v1h-8v-1z"/><path fill="#e6edf2" d="m171 67-6-5a3.5355339 3.5355339 0 1 1 5-5l3 3 8-9h8l-13 16a3 3 0 0 1 -2 1 8 8 0 0 0 -3-1z"/><path fill="#9bb4bf" d="m188 130v6h-36v-6a8 8 0 0 1 9-9h19a8 8 0 0 1 8 9z"/><path fill="#f9e3d4" d="m183 110v1a11 11 0 0 1 -10 10h-6a10 10 0 0 1 -10-10v-8a35 35 0 0 0 25-6h1a10 10 0 0 1 0 4zm-5 3a1 1 0 1 0 -2 0 1 1 0 0 0 2 0zm-16 0a1.5811388 1.5811388 0 0 0 -1-3 1.5811388 1.5811388 0 1 0 1 3z"/><path fill="#7eb5bd" d="m183 97h-1a35 35 0 0 1 -25 6v-2a11 11 0 0 1 10-10h6a10 10 0 0 1 10 6z"/><path fill="#6e7f89" d="m178 111a1 1 0 1 1 -2 0 1 1 0 0 1 2 0z"/><path fill="#fff" d="m174 68h-1a3 3 0 0 1 -2-1 8 8 0 0 1 3 1z"/><circle cx="171" cy="76" r="2" fill="#fdae76"/><path fill="#e6edf2" d="m188 130a8 8 0 0 0 -8-9h-7a11 11 0 0 0 10-10v-1h5c1-25-19-24-19-24h3v-4a8 8 0 0 0 2-14 3 3 0 0 0 2-1l13-16h3v101h-55v-61h20c-7 8-5 22-5 22h5a11 11 0 0 0 10 8h-6a8 8 0 0 0 -9 9v6h36z"/><path fill="#7eb5bd" d="m157 111a11 11 0 0 0 0 2h-5s-2-14 5-22c2-3 6-5 12-5 0 0 20-1 19 24h-5v-9a10 10 0 0 0 0-4 10 10 0 0 0 -10-6h-6a11 11 0 0 0 -10 10z"/><path fill="#fdae76" d="m169 76a2 2 0 1 0 2-2 2 2 0 0 0 -2 2 2 2 0 1 0 -1 2 2 2 0 0 0 1-2zm-3 6a8 8 0 0 1 3-15 7 7 0 0 1 2 0 3 3 0 0 0 2 1h1a8 8 0 0 1 -2 14v4h-6z"/><path fill="#fdae76" d="m168 78a2 2 0 1 1 1-2 2 2 0 0 1 -1 2z"/><path fill="#6e7f89" d="m163 111a1.118034 1.118034 0 0 1 -2 1 1.118034 1.118034 0 1 1 2-1z"/><path fill="#e6edf2" d="m169 86c-6 0-10 2-12 5v-7h-20v-9h20v-7h-20v-17h44l-8 9-3-3a3.5355339 3.5355339 0 1 0 -5 5l6 5a7 7 0 0 0 -2 0 8 8 0 0 0 -3 15v4z"/><path fill="#e6edf2" d="m137 84h20v7h-20zm0-16h20v7h-20z"/><path fill="#fff" d="m137 100h1v7h-1z"/><path fill="#c4d4dd" d="m137 107v45h-33v-29l3 3-1 4 4-2 3 2 4-2 4 2-1-4 3-3-4-1-2-3-2 3-2 1-1-1-2-3-2 3-4 1v-16zm-33-7h33v7h-33zm0-9h33v9h-33zm0-7h33v7h-33zm0-9h33v9h-33zm0-7h33v7h-33zm33-17v17h-33v-18h77v1z"/><path fill="#c4d4dd" d="m123 123-3 3 1 4-4-2-4 2 1-4-1-1 3-2h-3l2-1 2-3 2 3z"/><path fill="#c4d4dd" d="m116 123-3 2-2-2zm-2 3-1 4v-5z"/><path fill="#c4d4dd" d="m111 123 2 2v5l-3-2-4 2 1-4-3-3 4-1 2-3 2 3 1 1zm-25-23h17v7h-17zm0-16h17v7h-17zm0-16h17v7h-17z"/><path fill="#fdae76" d="m98 123-3 3 1 4-4-2-3 2v-4l-3-3 4-1 2-3 2 3z"/><path fill="#7eb5bd" d="m76 100a5 5 0 0 1 2 6 5 5 0 0 1 -6 3v-8a11 11 0 0 0 -3-8h2a5 5 0 0 1 3 0 5 5 0 0 1 3 6 5 5 0 0 1 -1 1z"/><path fill="#9bb4bf" d="m69 121a8 8 0 0 1 8 8v6h-36v-6a8 8 0 0 1 9-8z"/><path fill="#f9e3d4" d="m72 109v1a11 11 0 0 1 -10 11h-6a11 11 0 0 1 -10-11v-1a5 5 0 0 0 2-6 4 4 0 0 0 -1-1 35 35 0 0 0 21-3 5 5 0 0 0 2 3 5 5 0 0 0 2 7zm-5 3a1.4142136 1.4142136 0 1 0 -2-2 1.4142136 1.4142136 0 0 0 2 2zm-16 0a1 1 0 1 0 -2 0 1 1 0 0 0 2 0z"/><path fill="#f9e3d4" d="m72 102v7a5 5 0 0 1 -2-7zm0-2v1h-2a5 5 0 0 1 -2-2 25 25 0 0 0 3-2v-1a10 10 0 0 1 1 4z"/><path fill="#e6edf2" d="m39 106a5 5 0 0 0 6 3 4 4 0 0 0 1 0v1a11 11 0 0 0 10 11h-6a8 8 0 0 0 -9 8v6h36v-6a8 8 0 0 0 -8-8h-7a11 11 0 0 0 10-11v-1a5 5 0 0 0 6-3 5 5 0 0 0 -2-6 5 5 0 0 0 1-1 5 5 0 0 0 -3-6 5 5 0 0 0 -3 0 5 5 0 0 0 1-3 5 5 0 0 0 -5-4h-6v-4a8 8 0 1 0 -6 0v4h-5a5 5 0 0 0 -5 4 5 5 0 0 0 1 3 5 5 0 0 0 -3 0 5 5 0 0 0 -3 6 5 5 0 0 0 1 1 5 5 0 0 0 -2 6zm65 17v29h-79v-102h79v18h-18v7h18v9h-18v7h18v9h-18v7h18zm-9 3 3-3-4-1-2-3-2 3-4 1 3 3v4l3-2 4 2z"/><path fill="#6e7f89" d="m65 112a1.4142136 1.4142136 0 0 1 2-2 1.4142136 1.4142136 0 1 1 -2 2z"/><path fill="#7eb5bd" d="m68 96a5 5 0 0 0 0 3 35 35 0 0 1 -21 3 4 4 0 0 0 0-1 5 5 0 0 0 2-6 5 5 0 0 0 1 0 5 5 0 0 0 4-2 6 6 0 0 0 3 1l6-1a5 5 0 0 0 4 2 5 5 0 0 0 1 0 6 6 0 0 0 0 1z"/><path fill="#7eb5bd" d="m63 93-6 1a6 6 0 0 1 -3-1 5 5 0 0 1 -4 2 5 5 0 0 1 -1 0h-2l1-1a11 11 0 0 1 8-4h6a10 10 0 0 1 9 6v1a25 25 0 0 1 -3 2 5 5 0 0 1 0-3 6 6 0 0 1 0-1 5 5 0 0 1 -1 0 5 5 0 0 1 -4-2z"/><path fill="#7eb5bd" d="m46 93a5 5 0 0 1 -1-3 5 5 0 0 1 5-4h17a5 5 0 0 1 4 4 5 5 0 0 1 0 3h-2a10 10 0 0 0 -7-3h-6a11 11 0 0 0 -8 4z"/><circle cx="60" cy="76" r="2" fill="#fdae76"/><path fill="#fdae76" d="m58 86h-3v-4a8 8 0 1 1 6 0v4zm0-10a2 2 0 1 0 -1 2 2 2 0 0 0 1-2 2 2 0 1 0 2-1 2 2 0 0 0 -2 1z"/><path fill="#fdae76" d="m58 76a2 2 0 1 1 -1-1 2 2 0 0 1 1 1z"/><path fill="#6e7f89" d="m50 110a1.118034 1.118034 0 1 1 -1 2 1.118034 1.118034 0 0 1 1-2z"/><path fill="#7eb5bd" d="m49 96a5 5 0 0 1 -2 6h-1v-1a10 10 0 0 1 1-6h2a4 4 0 0 1 0 1z"/><path fill="#f9e3d4" d="m48 103a5 5 0 0 1 -2 6v-7h1a4 4 0 0 1 1 1z"/><path fill="#7eb5bd" d="m46 93 2 1-1 1a10 10 0 0 0 -1 5v9a4 4 0 0 1 -1 0 5 5 0 0 1 -6-3 5 5 0 0 1 2-6 5 5 0 0 1 -1-1 5 5 0 0 1 3-6 5 5 0 0 1 3 0z"/><g fill="none" stroke="#6e7f89" stroke-linecap="round" stroke-linejoin="round" stroke-width="1.5"><path d="m61 86v-4a8 8 0 1 0 -6 0v4m3 0v-10"/><path d="m58 76a2 2 0 1 1 -1-1 2 2 0 0 1 1 1z"/><circle cx="60" cy="76" r="2"/><path d="m47 75h-1m25 0h-2m-11-11v-2m-9 3 2 2m15 0 2-1m-22 43a4 4 0 0 1 -1 0 5 5 0 0 1 -6-3 5 5 0 0 1 2-6 5 5 0 0 1 -1-1 5 5 0 0 1 3-6 5 5 0 0 1 3 0 5 5 0 0 1 -1-3 5 5 0 0 1 5-4h17a5 5 0 0 1 4 4 5 5 0 0 1 0 3 5 5 0 0 1 3 0 5 5 0 0 1 3 6 5 5 0 0 1 -1 1 5 5 0 0 1 2 6 5 5 0 0 1 -6 3m264 43h77v-102h-77"/><path d="m383 121a11 11 0 0 0 10-11v-10a11 11 0 0 0 -10-10h-6a10 10 0 0 0 -10 10v10a11 11 0 0 0 10 11m0 0h-7a8 8 0 0 0 -8 8v6h35v-6a8 8 0 0 0 -8-8zm1-36v-4a8 8 0 1 1 5 0v4m-2 0v-10m10-1h2m-25 0h2m-34 1h16v-7h-16m0 23h16v-7h-16m0 23h16v-7h-16m11 19-2 3-4 1 3 3-1 4 4-2 3 2v-4l3-3-5-1zm21-22a35 35 0 0 0 25 5m-12-39v-2m9 3-2 2m-16 0-1-1m-267 87h-79v-102h79"/><path d="m104 75h-18v-7h18m0 23h-18v-7h18m0 23h-18v-7h18m-42 21h7a8 8 0 0 1 8 8v6h-36v-6a8 8 0 0 1 9-8h6m36-2 2 3 4 1-3 3 1 4-4-2-3 2v-4l-3-3 4-1zm12 49v-132a10 10 0 0 1 10-10h212a10 10 0 0 1 10 10v132m0 0h18v3a22 22 0 0 1 -23 23h-222a22 22 0 0 1 -23-23v-3zm-232-132h232"/><path d="m303 76v77h-166v-102h141"/><path d="m167 121a10 10 0 0 1 -10-10v-10a11 11 0 0 1 10-10h6a10 10 0 0 1 10 6 10 10 0 0 1 0 4v10a11 11 0 0 1 -10 10"/><path d="m157 113h-5s-2-14 5-22c2-3 6-5 12-5 0 0 20-1 19 24h-5m-1-13a35 35 0 0 1 -25 6m16 18h7a8 8 0 0 1 8 9v6h-36v-6a8 8 0 0 1 9-9z"/><path d="m169 86h3v-4a8 8 0 0 0 2-14 8 8 0 0 0 -3-1 7 7 0 0 0 -2 0 8 8 0 0 0 -3 15v4zm0 0v-10"/><path d="m169 76a2 2 0 1 1 -1-2 2 2 0 0 1 1 2z"/><circle cx="171" cy="76" r="2"/><path d="m158 74h-1m25 0h-2m-11-11v-2m-9 4 2 2m15 0 2-2m67 4h22v7h-70v-7zm0 16h22v7h-70v-7zm0 15h2v7h-50v-7zm62-46a18 18 0 0 1 -3 21 14 14 0 0 1 -2 1 18 18 0 0 1 -25-25l1-1a18 18 0 0 1 25-1m-101 70 2 4 4 1-3 3 1 4-4-2-3 2v-4l-3-3 5-1zm18 0 2 4 4 1-3 3 1 4-4-2-4 2 1-4-3-3 4-1zm17 0 2 4 4 1-3 3 1 4-4-2-3 2v-4l-3-3 4-1z"/><path d="m296 68a3 3 0 0 1 -1 1h-1a3 3 0 0 1 -1-1h-1l-5-5a3.2015621 3.2015621 0 0 1 4-5l3 3 8-10 1-1 1-1 4-5a3.2015621 3.2015621 0 0 1 5 4l-2 2-3 4-5 6-6 8a4 4 0 0 1 -1 0zm70 41a2 2 0 0 1 -2-3v-12a9 9 0 0 1 8-9h16a9 9 0 0 1 8 9v12a2 2 0 0 1 -2 3h-1m-331 12h-6a11 11 0 0 1 -10-11v-10a10 10 0 0 1 1-5l1-1a11 11 0 0 1 8-4h6a10 10 0 0 1 10 10v10a11 11 0 0 1 -10 11z"/><path d="m71 97a25 25 0 0 1 -3 2 35 35 0 0 1 -21 3h-1"/></g><path d="m134 26h-20a10 10 0 0 0 -10 10v132h20v-132a10 10 0 0 1 10-10zm-28 145v-3h-20v3a22 22 0 0 0 23 23h20a22 22 0 0 1 -23-23zm-17-121h15v102h-15zm247 0h15v102h-15z" opacity=".07"/></g></svg>