<svg xmlns="http://www.w3.org/2000/svg" version="1" viewBox="0 0 122 122"><g fill="none" fill-rule="evenodd"><g><ellipse cx="61" cy="61" fill="#FFF" rx="60" ry="60"/><path fill="#80B5BC" fill-rule="nonzero" d="M61 122A61 61 0 1 1 61 0a61 61 0 0 1 0 122zm0-2A59 59 0 1 0 61 2a59 59 0 0 0 0 118z"/></g><g transform="translate(42 19)"><path fill="#FF7C6E" d="M30 53h7l1 2v17l-1 1h-7l-2-1V55l2-2z"/><path fill="#6E7F89" fill-rule="nonzero" d="M30 55v16h6V55h-6zm0-2h7l1 2v17l-1 1h-7l-2-1V55l2-2z"/><path fill="#80B5BC" d="M12 24h12v43H12z"/><path fill="#6E7F89" fill-rule="nonzero" d="M14 26v39h7V26h-7zm-2-2h11v43H12V24z"/><path fill="#CDD9E0" d="M43 63v14l-2 2H1l-1-2V63l1-1h40l2 1z"/><path fill="#6E7F89" fill-rule="nonzero" d="M41 64H2v13h39V64zm2-1v14l-1 2H1l-1-2V63l1-1h41l1 1z"/><ellipse cx="17" cy="13" fill="#D4F4F2" rx="13" ry="13"/><path fill="#6E7F89" fill-rule="nonzero" d="M17 27a14 14 0 1 1 0-28 14 14 0 0 1 0 28zm0-2a12 12 0 1 0 0-24 12 12 0 0 0 0 24z"/><path fill="#6E7F89" fill-rule="nonzero" d="M28 13a1 1 0 1 1-2 0c0-5-4-9-10-9a1 1 0 0 1 0-2c7 0 12 5 12 11z"/></g></g></svg>